<svg xmlns="http://www.w3.org/2000/svg" xmlns:xlink="http://www.w3.org/1999/xlink" version="1.1" x="0px" y="0px" viewBox="26.071998596191406 14.054998397827148 59.43500518798828 73.65799713134766" enable-background="new 0 0 100 100" xml:space="preserve">
<path fill-rule="evenodd" clip-rule="evenodd" d="M50.19,60.077c-1.827-0.631-3.564-1.139-5.224-1.827  c-10.396-4.323-15.98-12.429-17.788-23.262c-1.106-6.613-0.438-13.195,1.254-19.679c0.219-0.83,0.508-1.254,1.454-1.248  c17.601,0.032,35.196,0.039,52.791,0.058c0.051,0,0.109,0.025,0.565,0.167c0.502,2.895,1.171,5.963,1.551,9.071  c0.714,5.726,0.405,11.438-1.435,16.938c-2.458,7.314-7.025,13.001-13.902,16.63c-2.033,1.067-4.291,1.704-6.388,2.65  c-0.477,0.219-1.036,0.92-1.042,1.402c-0.052,4.639-0.039,9.276,0.09,13.921c0.013,0.412,0.888,1.029,1.454,1.158  c4.722,1.119,9.469,2.175,14.229,3.165c1.094,0.226,1.519,0.637,1.479,1.775c-0.083,2.194-0.025,4.395-0.025,6.717  c-15.144,0-30.107,0-45.302,0c0-2.509-0.051-4.986,0.051-7.45c0.02-0.359,0.785-0.861,1.274-0.978  c4.387-1.081,8.788-2.129,13.208-3.088c1.254-0.271,1.769-0.694,1.743-2.084C50.125,69.418,50.19,64.722,50.19,60.077z   M34.995,21.754c-0.733,4.111-0.74,8.035-0.257,11.985c0.18,1.486,0.798,1.782,2.162,1.775c12.673-0.051,25.333-0.026,38.007-0.026  c0.553,0,1.106,0,1.686,0c1.145-4.053,0.823-7.977,0.515-11.92c-0.116-1.473-0.624-1.853-2.071-1.846  c-12.776,0.058-25.566,0.032-38.342,0.032C36.185,21.754,35.683,21.754,34.995,21.754z"></path>
</svg>
