<svg xmlns="http://www.w3.org/2000/svg" xmlns:xlink="http://www.w3.org/1999/xlink" version="1.1" x="0px" y="0px" viewBox="5 17 90 63" enable-background="new 0 0 100 100" xml:space="preserve">
<g>
    <path fill-rule="evenodd" clip-rule="evenodd" d="M53,23.044V20h3v-3H44v3h3v3.044C27.651,23.568,17,29,17,29v3h66v-3   C83,29,72.351,23.568,53,23.044z"></path>
    <path fill-rule="evenodd" clip-rule="evenodd" d="M92,47c-3.094,0-9,0-9,0v-6h3l3-6H11l3,6h3v6c0,0-5.906,0-9,0c-3,0-3,6,0,6   c3.188,0,9,0,9,0v18c0,4.973,4.029,9,9,9h48c4.969,0,9-4.027,9-9V53c0,0,5.812,0,9,0C95,53,95,47,92,47z M32,74c-6,0-6-3-6-3V41h6   V74z"></path>
</g>
</svg>
