<svg xmlns="http://www.w3.org/2000/svg" xmlns:xlink="http://www.w3.org/1999/xlink" version="1.1" x="0px" y="0px" viewBox="14.729000091552734 5 70.54200744628906 90" enable-background="new 0 0 100 100" xml:space="preserve"><path fill="#000000" d="M76.867,95H23.133c-4.633,0-8.403-3.77-8.403-8.403V13.403C14.729,8.77,18.5,5,23.133,5h53.734  c4.634,0,8.403,3.77,8.403,8.403v73.194C85.271,91.23,81.501,95,76.867,95z M23.133,9.422c-2.195,0-3.98,1.786-3.98,3.98v73.194  c0,2.195,1.786,3.98,3.98,3.98h53.734c2.195,0,3.98-1.785,3.98-3.98V13.403c0-2.195-1.785-3.98-3.98-3.98H23.133z"></path><rect x="24.238" y="32.501" fill="#000000" width="51.523" height="1.769"></rect><rect x="24.238" y="42.392" fill="#000000" width="51.523" height="1.769"></rect><rect x="24.238" y="62.173" fill="#000000" width="51.523" height="1.769"></rect><rect x="24.238" y="72.062" fill="#000000" width="51.523" height="1.77"></rect><rect x="24.238" y="81.953" fill="#000000" width="51.523" height="1.77"></rect><rect x="24.238" y="36.247" fill="#000000" width="9.431" height="4.423"></rect><rect x="71.045" y="36.119" fill="#000000" width="4.717" height="4.422"></rect><rect x="69.427" y="55.899" fill="#000000" width="6.335" height="4.423"></rect><rect x="71.959" y="65.79" fill="#000000" width="3.803" height="4.423"></rect><rect x="67.455" y="26.229" fill="#000000" width="8.307" height="4.422"></rect><rect x="24.238" y="46.108" fill="#000000" width="13.373" height="4.422"></rect><rect x="71.959" y="75.681" fill="#000000" width="3.803" height="4.423"></rect><rect x="71.959" y="46.009" fill="#000000" width="3.803" height="4.423"></rect><rect x="24.238" y="55.971" fill="#000000" width="10.699" height="4.423"></rect><rect x="24.238" y="65.831" fill="#000000" width="16.892" height="4.423"></rect><rect x="24.238" y="75.694" fill="#000000" width="9.994" height="4.423"></rect><rect x="24.238" y="52.282" fill="#000000" width="51.523" height="1.769"></rect><path fill="#000000" d="M34.984,16.756c-2.149,0-2.788,0.696-3.485,0.696s-1.336-0.696-3.485-0.696  c-2.149,0-3.775,2.246-3.775,4.723c0,2.479,2.439,8.287,5.111,8.287c1.393,0,1.742-0.349,2.149-0.349s0.755,0.349,2.149,0.349  c2.672,0,5.111-5.808,5.111-8.287C38.759,19.002,37.133,16.756,34.984,16.756z"></path><path fill="#000000" d="M31.502,16.803c-0.455,0-0.841-0.348-0.88-0.809c-0.081-0.936,0.265-2.889,2.146-3.579  c0.458-0.168,0.966,0.067,1.135,0.526c0.168,0.458-0.067,0.966-0.526,1.135c-1.096,0.402-0.993,1.753-0.992,1.767  c0.042,0.487-0.319,0.915-0.805,0.957C31.553,16.802,31.527,16.803,31.502,16.803z"></path></svg>
