<svg xmlns="http://www.w3.org/2000/svg" xmlns:xlink="http://www.w3.org/1999/xlink" version="1.1" x="0px" y="0px" viewBox="0 -1.8870000839233398 95.60700225830078 101.88700103759766" enable-background="new 0 0 95.607 100" xml:space="preserve"><g><g><path d="M47.813,50.081h-0.003c-0.006,0-0.011,0-0.017,0C47.803,50.081,47.808,50.081,47.813,50.081z"></path></g><path d="M95.607,53.622c-0.014-0.072-0.085-0.144-0.169-0.216c-0.002,0.008-0.011,0.015-0.017,0.022   c-0.205-0.455-2.435-0.881-6.223-1.252c0.488,0.614,1.464,2.467,1.464,2.467c-7.724,0.988-24.087,2.769-42.938,2.769   c-18.855,0-35.056-1.781-42.776-2.77c0,0,0.976-1.854,1.459-2.465c-3.773,0.371-5.994,0.796-6.204,1.25   c-0.006-0.012-0.019-0.024-0.022-0.036C0.087,53.467,0.016,53.544,0,53.622c0,0,16.076,36.573,16.131,36.602   C18.149,95.737,31.633,100,47.977,100c17.428,0,30.218-5.082,32.094-10.887L95.607,53.622z"></path><path d="M40.243,0.298c-1.021,5.759,8.097,6.392,13.063,10.416c3.992,3.232,6.573,1.026,8.012,3.557   c2.534,4.461-22.486,5.584-26.696-0.103C30.412,8.48,40.632-1.887,40.243,0.298z"></path><path d="M40.243,0.298c-1.021,5.759,8.097,6.392,13.063,10.416c3.992,3.232,6.573,1.026,8.012,3.557   c2.534,4.461-22.486,5.584-26.696-0.103C30.412,8.48,40.632-1.887,40.243,0.298z"></path><path d="M71.972,20.506c-0.157-0.536-1.305-1.816-1.305-1.816c-1.836-1.531-4.464-2.369-6.545-2.717   c-0.089,0.296-0.203,0.589-0.365,0.869c-2.019,3.468-9.781,3.985-14.229,3.985c-4.045,0-13.811-0.486-17.15-4.999   c-0.389-0.525-0.68-1.099-0.924-1.693c-1.439,0.418-2.939,1.127-4.364,2.304c0,0-1.271,1.154-1.483,1.67   c-0.952,2.321,1.422,3.694,3.146,4.453c9.395,4.141,29.878,9,39.474,5.089C72.032,26.101,72.679,22.912,71.972,20.506z"></path><path d="M73.938,26.346c-0.904,1.584-2.411,2.976-4.66,3.893c-2.678,1.091-6.155,1.645-10.332,1.645   c-10.374,0-23.882-3.485-31.32-6.765c-1.435-0.631-2.474-1.331-3.229-2.051c-1.92,1.169-3.749,3.017-3.826,4.523   c-0.13,2.504,2.171,5.43,4.224,6.206c11.195,4.235,35.158,7.87,46.625,4.157c3.724-1.206,5.498-4.94,5.628-7.445   C77.111,29.268,75.673,27.65,73.938,26.346z"></path><path d="M72.28,40.612c-3.437,1.112-7.965,1.676-13.459,1.676c-12.785,0-27.293-2.957-35.015-5.877   c-2.063-0.78-4.221-2.887-5.311-5.377c-1.163,1.128-1.934,3.056-1.934,5.126v1.527c0,3.389,1.219,6.428,3.586,7.331   c12.916,4.934,41.891,5.632,54.806,0.35c2.362-0.966,4.094-4.292,4.094-7.681V36.16c0-0.581-0.078-1.142-0.191-1.686   C77.675,37.126,75.458,39.583,72.28,40.612z"></path><g><path d="M77.68,46.942c-0.527,0.408-1.076,0.768-1.668,1.009c-8.242,3.371-20.365,3.875-26.858,3.875    c-11.901,0-23.117-1.57-30-4.199c-0.452-0.172-0.875-0.4-1.278-0.663c-3.811,1.662-6.777,3.633-8.573,5.818    c7.565,0.762,20.602,1.431,38.512,1.431c17.891,0,30.924-0.666,38.491-1.429C84.501,50.589,81.516,48.609,77.68,46.942z"></path></g></g></svg>
