<svg xmlns="http://www.w3.org/2000/svg" xmlns:xlink="http://www.w3.org/1999/xlink" version="1.1" x="0px" y="0px" viewBox="0 0 100 125" enable-background="new 0 0 100 100" xml:space="preserve"><path d="M53.675,55.891c3.253-3.254,6.507-6.509,9.762-9.763c1.525,4.77,1.242,6.749,1.394,9.183  c0.172,2.773-3.312,9.279-3.312,9.279C57.836,63.091,55.015,59.656,53.675,55.891z"/><path d="M47.64,61.924c1.581-1.58,3.161-3.16,4.741-4.741c0.812,2.027,1.359,3.841,1.359,3.841  C51.838,61.823,49.732,62.092,47.64,61.924z"/><path d="M44.484,17.543c0,0,3.103,4.333,5.47,10.729c0.545,1.473,0.944,2.721,1.237,3.806c-3.208,3.208-6.417,6.416-9.625,9.625  c-0.937-1.979-1.463-4.118-1.481-6.164C40.042,30.229,44.484,17.543,44.484,17.543z"/><path d="M28.528,41.874c0,0,4.375,0.729,9.846,3.021c-1.798,1.799-3.597,3.597-5.395,5.396  C30.546,46.075,28.528,41.874,28.528,41.874z"/><path d="M14.153,19.211c2.107-2.773,4.53-5.294,7.212-7.51c0.028,0.316,0.058,0.633,0.09,0.95c0.085,0.854,0.184,1.708,0.301,2.559  c0.112,0.812,0.241,1.62,0.399,2.423c0.086,0.436,0.181,0.87,0.288,1.301c0.089,0.357,0.187,0.713,0.296,1.063  c0.054,0.172,0.11,0.342,0.17,0.511c0.043,0.124,0.09,0.247,0.137,0.369c0.061,0.156,0.123,0.313,0.188,0.467  c0.043,0.101,0.087,0.201,0.132,0.302c-0.248-0.09-0.496-0.178-0.745-0.265c-1.22-0.425-2.455-0.809-3.701-1.147  c-0.478-0.131-0.958-0.255-1.439-0.37c-0.367-0.089-0.735-0.173-1.104-0.251c-0.24-0.052-0.48-0.101-0.721-0.146  c-0.098-0.019-0.195-0.036-0.293-0.053C14.96,19.345,14.557,19.277,14.153,19.211z"/><path d="M50.973,62.953c0,0,3.682-0.28,4.866,0c1.588,0.374,4.509,1.972,5.837,2.918c3.374,2.403,6.081,5.108,10.095,13.136  s4.864,15.812,5.96,17.393c1.095,1.581-7.419,2.432-7.419,2.432s0.972-9.954-2.677-18.158  C62.892,70.007,50.973,62.953,50.973,62.953z"/><path d="M23.852,1.169c0,0,0.076,13.442,1.901,18.429c1.825,4.987,7.099,9.423,12.694,9.666c0,0,1.095-7.298,0-9.853  c-1.095-2.554-1.46-4.742-5.839-9.972C28.229,4.21,23.852,1.169,23.852,1.169z"/><path d="M14.874,22.354c0,0,5.821,12.117,9.603,15.844c3.784,3.727,10.449,5.479,15.609,3.305c0,0-2.133-7.063-4.215-8.903  c-2.083-1.841-3.348-3.663-9.543-6.517S14.874,22.354,14.874,22.354z"/><path d="M61.235,75.93c-3.49,1.329-7.278,2.058-11.235,2.058c-6.435,0-12.415-1.93-17.406-5.235  c14.581-14.581,29.161-29.16,43.741-43.741c3.306,4.99,5.235,10.972,5.235,17.406c0,9.68-4.356,18.342-11.215,24.133  c0.285,0.416,0.562,0.84,0.832,1.267c0.389,0.615,0.764,1.241,1.126,1.872c0.403,0.702,0.792,1.411,1.17,2.127  c0.205,0.388,0.408,0.776,0.606,1.167c0.104,0.201,0.205,0.403,0.306,0.605c0.053,0.104,0.104,0.209,0.155,0.313  c0.052,0.104,0.104,0.208,0.153,0.311c0.389,0.805,0.756,1.618,1.103,2.441c0.285,0.678,0.557,1.361,0.814,2.05  C87.767,74.512,95,61.31,95,46.417c0-24.853-20.147-45-45-45c-6.182,0-12.072,1.246-17.434,3.502  c0.134,0.14,0.268,0.281,0.399,0.423c0.553,0.593,1.092,1.196,1.617,1.813c0.293,0.344,0.582,0.69,0.866,1.041  c0.285,0.35,0.565,0.703,0.841,1.06c0.214,0.277,0.424,0.558,0.631,0.84c0.207,0.283,0.411,0.567,0.61,0.855  c0.366,0.528,0.717,1.067,1.047,1.618c0.269,0.445,0.524,0.899,0.763,1.361c0.187,0.36,0.364,0.726,0.532,1.095  c0.167,0.366,0.325,0.738,0.476,1.112c0.025,0.063,0.051,0.125,0.077,0.188c3.02-0.96,6.236-1.478,9.573-1.478  c6.435,0,12.416,1.929,17.406,5.234c-14.58,14.58-29.161,29.161-43.741,43.74c-3.306-4.99-5.235-10.972-5.235-17.405  c0-3.221,0.483-6.329,1.379-9.257c-0.28-0.401-0.554-0.809-0.822-1.218c-0.47-0.72-0.924-1.448-1.367-2.185  c-0.446-0.741-0.88-1.488-1.307-2.241c-0.585-1.035-1.156-2.078-1.714-3.129c-0.591-1.114-1.17-2.235-1.734-3.362  c-0.167-0.333-0.333-0.667-0.497-1.001c-0.062-0.126-0.123-0.252-0.184-0.378c-0.148-0.31-0.298-0.619-0.446-0.929  C7.466,29.601,5,37.721,5,46.417c0,24.854,20.146,45,45,45c5.935,0,11.601-1.148,16.788-3.235c-0.064-0.349-0.134-0.696-0.208-1.042  c-0.129-0.6-0.274-1.194-0.438-1.784c-0.165-0.594-0.35-1.182-0.554-1.762c-0.204-0.578-0.43-1.147-0.679-1.708  c-0.325-0.733-0.69-1.45-1.089-2.146c-0.399-0.705-0.832-1.389-1.29-2.057C62.118,77.084,61.686,76.5,61.235,75.93z"/></svg>