<?xml version="1.0" encoding="utf-8"?><!DOCTYPE svg PUBLIC "-//W3C//DTD SVG 1.1//EN" "http://www.w3.org/Graphics/SVG/1.1/DTD/svg11.dtd"><svg version="1.1" xmlns="http://www.w3.org/2000/svg" xmlns:xlink="http://www.w3.org/1999/xlink" x="0px" y="0px" viewBox="0 0 100 95.777" enable-background="new 0 0 100 95.777" xml:space="preserve"><g><path fill="#010101" d="M52.111,0C35.042,0,20.084,8.936,11.606,22.381l14.133-4.29l-0.998,14.866
		c5.286-9.677,15.566-16.229,27.369-16.229c17.21,0,31.161,13.951,31.161,31.161c0,17.21-13.951,31.16-31.161,31.16
		c-15.374,0-28.145-11.129-30.695-25.772h4.024L12.67,34.852L0,53.309h4.523c2.698,23.89,22.978,42.468,47.588,42.468
		c26.449,0,47.889-21.44,47.889-47.889S78.561,0,52.111,0z"></path><path fill="#010101" d="M44.788,47.888c0,0,0,0.001,0,0.001c0,4.044,3.28,7.323,7.323,7.323c4.045-0.001,7.324-3.279,7.324-7.324
		c0,0,0-0.001,0-0.001c-0.001-4.044-3.28-7.323-7.324-7.323C48.066,40.564,44.788,43.843,44.788,47.888z"></path><rect x="49.895" y="20.474" fill="#010101" width="4.435" height="18.006"></rect><rect x="59.571" y="53.798" transform="matrix(-0.8076 0.5897 -0.5897 -0.8076 147.4568 73.2017)" fill="#010101" width="4.435" height="13.706"></rect></g></svg>
