<svg width="81px" height="80px" viewBox="-3.569000005722046 0.2370000034570694 84.69100189208984 79.61000061035156" version="1.1" xmlns="http://www.w3.org/2000/svg" xmlns:xlink="http://www.w3.org/1999/xlink">
    <!-- Generator: Sketch 39.1 (31720) - http://www.bohemiancoding.com/sketch -->
    <title>rest_time</title>
    <desc>Created with Sketch.</desc>
    <defs></defs>
    <g id="Page-1" stroke="none" stroke-width="1" fill="none" fill-rule="evenodd">
        <g id="rest_time" fill="#000000">
            <rect id="Rectangle-path" x="36.408" y="59" width="1.985" height="8.031"></rect>
            <rect id="Rectangle-path" x="12.969" y="41.606" width="8.031" height="1.985"></rect>
            <rect id="Rectangle-path" transform="translate(26.927772, 60.126492) rotate(30.830122) translate(-26.927772, -60.126492) " x="25.9347614" y="56.1109478" width="1.986" height="8.031"></rect>
            <rect id="Rectangle-path" transform="translate(54.929327, 53.073392) rotate(120.850755) translate(-54.929327, -53.073392) " x="53.9363335" y="49.0574199" width="1.986" height="8.032"></rect>
            <rect id="Rectangle-path" transform="translate(19.872672, 32.128676) rotate(120.842898) translate(-19.872672, -32.128676) " x="18.8801449" y="28.1130655" width="1.985" height="8.031"></rect>
            <rect id="Rectangle-path" transform="translate(19.434113, 52.295892) rotate(61.620467) translate(-19.434113, -52.295892) " x="18.4416335" y="48.2799764" width="1.985" height="8.032"></rect>
            <rect id="Rectangle-path" transform="translate(47.096700, 60.568780) rotate(151.641037) translate(-47.096700, -60.568780) " x="46.1046876" y="56.5527298" width="1.984" height="8.032"></rect>
            <rect id="Rectangle-path" transform="translate(27.704176, 24.631985) rotate(151.620467) translate(-27.704176, -24.631985) " x="26.7116964" y="20.6160689" width="1.985" height="8.032"></rect>
            <polygon id="Shape" points="37.393 39.513 40.176 42.617 41.52 42.617 37.393 38.017"></polygon>
            <polygon id="Shape" points="37.393 34.913 44.304 42.617 45.648 42.617 37.393 33.415"></polygon>
            <path d="M80.573,31.027 L63.406,1.721 C62.867,0.802 61.883,0.237 60.817,0.237 C59.751,0.237 58.767,0.801 58.228,1.721 L53.948,9.028 C48.864,6.508 43.232,5.167 37.392,5.167 C27.418,5.167 18.041,9.051 10.99,16.104 C-3.569,30.663 -3.569,54.351 10.99,68.909 C18.042,75.963 27.419,79.847 37.393,79.847 C47.367,79.847 56.744,75.964 63.796,68.911 C72.851,59.855 76.27,47.269 74.062,35.544 L77.984,35.544 C79.059,35.544 80.052,34.969 80.587,34.036 C81.122,33.103 81.116,31.955 80.573,31.027 L80.573,31.027 Z M59.555,64.667 C53.635,70.586 45.765,73.846 37.394,73.846 C29.023,73.846 21.153,70.586 15.233,64.666 C3.014,52.447 3.014,32.565 15.233,20.346 C21.152,14.427 29.022,11.167 37.393,11.167 C42.149,11.167 46.743,12.222 50.91,14.216 L46.919,21.029 L45.663,19.629 C45.05,19.408 44.427,19.214 43.792,19.042 L46.389,21.936 L45.289,23.813 L40.413,18.378 C39.927,18.318 39.438,18.271 38.944,18.239 L44.757,24.719 L43.657,26.595 L38.393,20.728 L38.393,18.166 L36.408,18.166 L36.408,26.198 L37.831,26.198 L41.497,30.284 L41.061,31.027 C40.802,31.469 40.674,31.961 40.66,32.456 L37.392,28.813 L37.392,30.311 L48.431,42.616 L49.775,42.616 L43.4,35.51 C43.484,35.517 43.564,35.543 43.65,35.543 L46.214,35.543 L52.559,42.617 L53.801,42.617 L53.801,43.592 L61.833,43.592 L61.833,41.607 L61.252,41.607 L55.813,35.544 L58.596,35.544 L61.411,38.683 C61.309,38.03 61.177,37.387 61.022,36.752 L59.939,35.544 L67.932,35.544 C70.23,45.696 67.443,56.778 59.555,64.667 L59.555,64.667 Z M43.127,27.502 L42.026,29.379 L38.393,25.329 L38.393,22.225 L43.127,27.502 L43.127,27.502 Z M55.78,41.606 L53.801,41.606 L53.801,42.503 L47.556,35.543 L50.34,35.543 L55.78,41.606 L55.78,41.606 Z M51.686,35.543 L54.469,35.543 L59.908,41.606 L57.125,41.606 L51.686,35.543 L51.686,35.543 Z M43.65,32.543 L60.817,3.236 L77.984,32.543 L43.65,32.543 L43.65,32.543 Z" id="Shape"></path>
            <path d="M59.087,12.899 C59.087,12.596 59.256,12.445 59.592,12.445 L62.273,12.445 C62.575,12.445 62.727,12.596 62.727,12.899 L62.727,24.01 C62.727,24.141 62.688,24.248 62.614,24.334 C62.538,24.421 62.425,24.464 62.273,24.464 L59.592,24.464 C59.488,24.464 59.379,24.422 59.263,24.34 C59.145,24.258 59.087,24.148 59.087,24.01 L59.087,12.899 L59.087,12.899 Z" id="Shape"></path>
            <path d="M59.087,26.453 C59.087,26.316 59.127,26.205 59.207,26.123 C59.285,26.042 59.396,26 59.541,26 L62.262,26 C62.379,26 62.487,26.042 62.587,26.124 C62.687,26.206 62.735,26.316 62.735,26.454 L62.735,28.95 C62.735,29.073 62.695,29.183 62.613,29.28 C62.529,29.376 62.414,29.424 62.261,29.424 L59.54,29.424 C59.237,29.424 59.086,29.266 59.086,28.951 L59.086,26.453 L59.087,26.453 Z" id="Shape"></path>
        </g>
    </g>
</svg>
