<?xml version="1.0" encoding="UTF-8" standalone="no"?>
<svg width="90px" height="84px" viewBox="0 0 90 84" version="1.1" xmlns="http://www.w3.org/2000/svg" xmlns:xlink="http://www.w3.org/1999/xlink">
    <!-- Generator: Sketch 39.1 (31720) - http://www.bohemiancoding.com/sketch -->
    <title>noun_118506_cc</title>
    <desc>Created with Sketch.</desc>
    <defs></defs>
    <g id="Page-1" stroke="none" stroke-width="1" fill="none" fill-rule="evenodd">
        <g id="noun_118506_cc" transform="translate(0.000000, -1.000000)" fill="#000000">
            <g id="Group">
                <path d="M63,22 C63,11.566 67.89,6.361 68.135,6.107 C69.293,4.934 69.288,3.045 68.121,1.878 C66.95,0.706 65.05,0.706 63.879,1.878 C63.598,2.159 57,8.908 57,22 C57,28.2 59.671,32.808 62.499,37.685 C62.626,37.905 62.754,38.125 62.882,38.346 C60.022,39.888 53.233,43 45,43 C36.767,43 29.977,39.888 27.119,38.346 C27.247,38.125 27.374,37.905 27.502,37.685 C30.329,32.808 33,28.2 33,22 C33,8.908 26.402,2.159 26.121,1.879 C24.95,0.707 23.05,0.707 21.879,1.879 C20.707,3.05 20.707,4.95 21.879,6.121 C21.93,6.173 27,11.535 27,22 C27,26.587 24.827,30.335 22.311,34.675 C18.884,40.585 15,47.284 15,58 C15,70.563 21.059,82.826 21.317,83.342 C21.842,84.393 22.901,85 24.001,85 C24.452,85 24.909,84.898 25.339,84.684 C26.821,83.944 27.423,82.143 26.684,80.661 C26.627,80.546 21,69.12 21,58 C21,57.03 21.045,56.106 21.116,55.21 C26.273,57.012 37.186,61.324 42,65.33 L42,82 C42,83.657 43.343,85 45,85 C46.657,85 48,83.657 48,82 L48,65.33 C52.81,61.329 63.726,57.014 68.885,55.21 C68.955,56.106 69,57.03 69,58 C69,69.12 63.373,80.546 63.317,80.658 C62.576,82.14 63.176,83.942 64.658,84.683 C65.089,84.898 65.547,85 65.997,85 C67.098,85 68.157,84.392 68.683,83.341 C68.941,82.826 75,70.563 75,58 C75,47.284 71.116,40.585 67.689,34.675 C65.173,30.335 63,26.587 63,22 L63,22 Z M45,60.061 C37.807,54.638 24.099,49.882 22.163,49.227 C22.725,47.206 23.457,45.369 24.277,43.638 C27.727,45.508 35.45,49 45,49 C54.55,49 62.273,45.508 65.724,43.638 C66.544,45.368 67.276,47.205 67.838,49.226 C65.905,49.881 52.194,54.637 45,60.061 L45,60.061 Z" id="Shape"></path>
                <circle id="Oval" cx="45" cy="34" r="3"></circle>
                <path d="M20.496,20.336 L14.496,11.336 C13.578,9.958 11.714,9.586 10.336,10.504 C8.958,11.423 8.585,13.285 9.504,14.664 L12.395,19 L3,19 C1.343,19 0,20.343 0,22 C0,23.657 1.343,25 3,25 L12.395,25 L9.504,29.336 C8.585,30.715 8.958,32.577 10.336,33.496 C10.847,33.837 11.425,34 11.997,34 C12.967,34 13.918,33.531 14.496,32.664 L20.496,23.664 C21.168,22.656 21.168,21.344 20.496,20.336 L20.496,20.336 Z" id="Shape"></path>
                <path d="M87,19 L77.605,19 L80.496,14.664 C81.415,13.285 81.042,11.423 79.664,10.504 C78.285,9.584 76.423,9.957 75.504,11.336 L69.504,20.336 C68.832,21.344 68.832,22.656 69.504,23.664 L75.504,32.664 C76.082,33.531 77.033,34 78.003,34 C78.575,34 79.153,33.837 79.664,33.496 C81.042,32.577 81.415,30.715 80.496,29.336 L77.605,25 L87,25 C88.657,25 90,23.657 90,22 C90,20.343 88.657,19 87,19 L87,19 Z" id="Shape"></path>
            </g>
        </g>
    </g>
</svg>