<svg xmlns="http://www.w3.org/2000/svg" xmlns:xlink="http://www.w3.org/1999/xlink" version="1.1" x="0px" y="0px" viewBox="9 5.352996826171875 90.08499908447266 98.1760025024414" enable-background="new 0 0 100 100" xml:space="preserve"><path d="M40.104,94.854h15.987c0,0-3.521,8.675,9.064-21.709c33.93-21.693,23.716-40.884,21.839-67.792  C57.098,9.247,47.721,26.468,48.277,53.516c7.383-2.775,14.166-6.946,17.717-9.993c-2.917-5.569-4.567-6.685-9.877-10.606  c5.893,1.126,10.708,5.68,12.87,7.326c1.653-2.026,3.36-7.74,3.36-7.74s-5.371-6.495-10.976-10.107  c4.818-0.106,10.09,5.475,12.437,6.675c0.117-0.371,1.308-3.795,2.476-6.591c-1.42-2.544-2.68-3.798-5.795-6.534  c3.907,1.52,5.498,2.788,6.889,3.9c0.695-1.46,4.525-8.17,7.618-11.044c-7.287,17.839,6.314,41.924-31.302,56.594  c-3.5,10.041-5.085,15.298-5.085,15.298s-1.329,0.006-1.756-0.018L25.288,22.874H9L40.104,94.854z"></path></svg>
