<svg xmlns:dc="http://purl.org/dc/elements/1.1/" xmlns:cc="http://creativecommons.org/ns#" xmlns:rdf="http://www.w3.org/1999/02/22-rdf-syntax-ns#" xmlns:svg="http://www.w3.org/2000/svg" xmlns="http://www.w3.org/2000/svg" xmlns:sodipodi="http://sodipodi.sourceforge.net/DTD/sodipodi-0.dtd" xmlns:inkscape="http://www.inkscape.org/namespaces/inkscape" version="1.1" x="0px" y="0px" viewBox="20 7 60 86"><g transform="translate(0,-952.36218)"><path style="color:#000000;enable-background:accumulate;" d="m 46,959.36217 c -3.6805,0 -6.0129,2.3195 -6,6 l -6,0 c -0.554,0 -1,0.446 -1,1 l 0,10 c 0,0.554 0.446,1 1,1 l 32,0 c 0.554,0 1,-0.446 1,-1 l 0,-10 c 0,-0.554 -0.446,-1 -1,-1 l -6,0 c -0.013,-3.6805 -2.3195,-6 -6,-6 l -8,0 z m -20,12 c -3.324,0 -6,2.676 -6,6 l 0,62.00003 c 0,3.324 2.676,6 6,6 l 48,0 c 3.324,0 6,-2.676 6,-6 l 0,-62.00003 c 0,-3.324 -2.676,-6 -6,-6 l -5,0 0,5 c 0,1.6274 -1.3726,3 -3,3 l -32,0 c -1.6274,0 -3,-1.3726 -3,-3 l 0,-5 -5,0 z m 42.0312,26 c 0.7344,0.016 1.4608,0.4596 1.7813,1.125 0.3663,0.7603 0.1472,1.74193 -0.4375,2.31253 l -24,24 c -0.6964,0.6947 -1.9296,0.752 -2.6875,0.125 l -12,-10 c -0.8099,-0.6709 -0.9209,-2.0025 -0.25,-2.8125 0.6709,-0.81 2.0026,-0.9522 2.8125,-0.2812 l 10.5938,8.8437 22.7187,-22.71873 c 0.3058,-0.3183 0.7195,-0.4995 1.1563,-0.5626 0.1043,-0.015 0.2075,-0.034 0.3124,-0.031 z" fill="#000000" stroke="none" marker="none" visibility="visible" display="inline" overflow="visible"></path></g></svg>
