<svg xmlns:dc="http://purl.org/dc/elements/1.1/" xmlns:cc="http://creativecommons.org/ns#" xmlns:rdf="http://www.w3.org/1999/02/22-rdf-syntax-ns#" xmlns:svg="http://www.w3.org/2000/svg" xmlns="http://www.w3.org/2000/svg" xmlns:sodipodi="http://sodipodi.sourceforge.net/DTD/sodipodi-0.dtd" xmlns:inkscape="http://www.inkscape.org/namespaces/inkscape" version="1.1" x="0px" y="0px" viewBox="20 7 60 86"><g transform="translate(0,-952.36218)"><path style="color:#000000;enable-background:accumulate;" d="m 46,959.36217 c -3.6805,0 -6.0129,2.3195 -6,6 l -6,0 c -0.554,0 -1,0.446 -1,1 l 0,10 c 0,0.554 0.446,1 1,1 l 32,0 c 0.554,0 1,-0.446 1,-1 l 0,-10 c 0,-0.554 -0.446,-1 -1,-1 l -6,0 c -0.013,-3.6805 -2.3195,-6 -6,-6 l -8,0 z m -20,12 c -3.324,0 -6,2.676 -6,6 l 0,62.00003 c 0,3.324 2.676,6 6,6 l 48,0 c 3.324,0 6,-2.676 6,-6 l 0,-62.00003 c 0,-3.324 -2.676,-6 -6,-6 l -5,0 0,5 c 0,1.6274 -1.3726,3 -3,3 l -32,0 c -1.6274,0 -3,-1.3726 -3,-3 l 0,-5 -5,0 z m 20,28.00002 c 0.5049,0 1.0157,0.2032 1.4062,0.5938 0.781,0.78091 0.781,2.03151 0,2.81241 l -6.5937,6.5938 23.1875,0 c 1.1046,0 2,0.8955 2,2 0,1.1045 -0.8954,2 -2,2 l -23.1875,0 6.5937,6.5938 c 0.781,0.7809 0.7993,2.0504 0,2.8124 -0.8396,0.8007 -2.0159,0.785 -2.8124,0 -3.2919,-3.302 -6.5949,-6.6548 -9.9063,-9.9062 -0.4194,-0.3666 -0.6875,-0.8992 -0.6875,-1.5 0,-0.6094 0.2888,-1.1332 0.7188,-1.5 3.1307,-3.3163 6.627,-6.5942 9.875,-9.90621 0.4021,-0.4023 0.9013,-0.5967 1.4062,-0.5938 z" fill="#000000" stroke="none" marker="none" visibility="visible" display="inline" overflow="visible"></path></g></svg>
