<?xml version="1.0" encoding="UTF-8" standalone="no"?>
<svg width="180px" height="180px" viewBox="0 0 180 180" version="1.1" xmlns="http://www.w3.org/2000/svg" xmlns:xlink="http://www.w3.org/1999/xlink">
    <!-- Generator: Sketch 39.1 (31720) - http://www.bohemiancoding.com/sketch -->
    <defs>
        <rect id="path-1" x="0" y="0" width="180" height="180"></rect>
        <mask id="mask-2" maskContentUnits="userSpaceOnUse" maskUnits="objectBoundingBox" x="0" y="0" width="180" height="180" fill="white">
            <use xlink:href="#path-1"></use>
        </mask>
    </defs>
    <g id="Logo" stroke="none" stroke-width="1" fill="none" fill-rule="evenodd">
        <g id="Logo-Dark">
            <g id="Logo">
                <g id="Stove" stroke-width="1" fill-rule="evenodd" transform="translate(41.000000, 35.000000)" fill="#000000">
                    <path d="M11.392,41.6 C21.376,41.6 25.536,33.92 25.536,28.992 C25.536,23.36 19.904,20.928 15.424,18.048 C12.032,15.808 9.408,13.248 9.408,9.088 C9.408,5.376 12.8,3.2 16.256,3.072 C19.968,3.2 21.44,4.8 21.44,6.208 C21.44,7.424 21.184,8.128 21.184,9.472 C21.184,10.88 21.696,11.712 22.336,11.712 C24.768,11.712 27.52,8.704 27.84,6.464 C27.52,3.008 22.912,0 17.664,0 C10.816,0 3.904,5.376 3.904,12.288 C3.904,18.56 8.512,21.312 12.8,23.936 C16.448,26.176 19.84,28.288 19.84,32.32 C19.84,36.096 17.152,38.528 12.8,38.528 C9.536,38.528 6.4,37.632 6.4,32.896 C6.4,31.552 6.208,29.248 5.312,29.12 C1.984,29.12 0,32.832 0,35.136 C0.96,40 7.168,41.152 11.392,41.6 L11.392,41.6 Z" id="S"></path>
                </g>
                <g id="Oven" stroke-width="1" fill-rule="evenodd" transform="translate(105.000000, 103.000000)" fill="#000000">
                    <path d="M16.704,41.6 C30.976,41.6 39.424,30.976 39.424,19.328 C39.424,8.192 31.872,0 22.656,0 C9.792,0 0,9.984 0,22.08 C0,33.92 7.68,41.6 16.704,41.6 L16.704,41.6 Z M21.824,3.072 C28.544,3.072 32.064,9.728 32.064,17.984 C32.064,27.328 28.096,38.528 17.536,38.528 C10.624,38.528 7.36,31.616 7.36,23.36 C7.36,13.952 11.136,3.072 21.824,3.072 L21.824,3.072 Z" id="O"></path>
                </g>
                <path d="M81.92,81.736 C81.92,82.648 80.48,85.816 80,86.704 C80.12,87.544 81.104,89.2 82.736,89.2 C85.256,89.2 88.52,84.112 88.52,80.848 C88.52,79.864 87.848,79.264 87.008,79 C86.552,79 86.12,79.792 86.12,80.32 C86.216,81.4 86.936,81.52 87.008,82.792 C87.008,84.664 84.584,87.496 83.36,87.496 C82.88,87.496 82.208,87.088 82.208,86.632 C82.208,85.216 83.504,81.712 84.176,79.408 C84.176,79.408 84.128,79.192 83.936,79.12 C83.168,79.432 81.656,79.696 80.576,79.72 C80.528,79.84 80.48,80.032 80.48,80.224 C80.48,80.32 80.504,80.464 80.528,80.56 C81.488,80.656 81.92,80.92 81.92,81.736 L81.92,81.736 Z" id="v" fill="#333333" fill-rule="evenodd"></path>
                <path d="M32.8167535,147.210134 C34.1954588,148.586024 36.4561385,149.083462 36.4561385,149.083462 C36.4561385,149.083462 62.3400908,118.691002 90.479629,90.525464 C118.619167,62.3599259 149,36.4356136 149,36.4356136 C149,36.4356136 148.556986,34.1997155 147.196705,32.8434947 C145.836424,31.4872739 143.578376,31.0301721 143.578376,31.0301721 C143.578376,31.0301721 117.731435,61.4446178 89.5807264,89.6028073 C61.4300177,117.760997 31,143.638464 31,143.638464 C31,143.638464 31.4380481,145.834243 32.8167535,147.210134 Z" id="Path-56" fill="#000000" fill-rule="evenodd"></path>
                <path d="M98.816,93.872 C99.512,93.872 100.04,92.72 100.04,91.976 C99.608,91.352 98.072,91.16 97.376,91.16 C95.624,91.16 93.632,92.36 93.632,94.136 C93.632,96.728 97.4,97.016 97.4,98.912 C97.4,99.8 96.824,100.4 95.72,100.4 C94.376,100.4 94.016,98.408 93.512,98.192 C92.768,98.192 92.192,99.32 92.168,99.992 C92.432,100.856 94.208,101.36 95.288,101.36 C97.256,101.36 99.152,100.184 99.152,98.168 C99.152,95.624 95.312,95.528 95.312,93.416 C95.312,92.672 95.792,92.12 96.752,92.12 C97.808,92.12 98.288,93.608 98.816,93.872 L98.816,93.872 Z" id="s" fill="#333333" fill-rule="evenodd"></path>
                <use id="Rectangle-1" stroke="#000000" mask="url(#mask-2)" stroke-width="10" xlink:href="#path-1"></use>
            </g>
        </g>
    </g>
</svg>
